<svg width="1139" height="1720" viewBox="0 0 1139 1720" fill="none" xmlns="http://www.w3.org/2000/svg">
<path d="M1138.24 569.122C1138.24 993.284 734.561 1230.18 594.141 1517.72C583.978 1538.53 554.266 1538.53 544.103 1517.72C403.683 1230.18 0 993.284 0 569.122C0 254.811 254.811 0 569.122 0C883.433 0 1138.24 254.811 1138.24 569.122Z" fill="#6089C0"/>
<path d="M569.122 955.667C782.605 955.667 955.667 782.605 955.667 569.122C955.667 355.639 782.605 182.577 569.122 182.577C355.639 182.577 182.577 355.639 182.577 569.122C182.577 782.605 355.639 955.667 569.122 955.667Z" fill="white"/>
<path d="M569.122 847.607C722.925 847.607 847.607 722.925 847.607 569.122C847.607 415.319 722.925 290.637 569.122 290.637C415.319 290.637 290.637 415.319 290.637 569.122C290.637 722.925 415.319 847.607 569.122 847.607Z" fill="#6089C0"/>
<path d="M802.217 1446.26C765.02 1435.74 726.715 1429.89 688.543 1425.91C688.543 1425.91 688.543 1425.91 688.532 1425.91C680.924 1436.61 673.604 1447.32 666.606 1458.05C721.178 1468.19 774.521 1487.14 821.851 1514.66C833.744 1521.89 859.923 1540.46 858.251 1554.95C856.457 1561.03 852.946 1564.47 847.343 1569.53C843.611 1572.71 839.06 1575.84 833.988 1578.81C756.792 1623.21 573.696 1627.64 483.045 1620.91C440.665 1617.57 398.739 1611.71 358.275 1600.09C339.184 1594.44 321.2 1587.93 304.578 1578.34C295.885 1573.26 279.407 1562 279.75 1552.13C281.81 1537.34 303.149 1522.12 316.161 1514.2C362.683 1487.55 417.31 1469.51 472.48 1459.32C464.917 1447.68 456.965 1436.09 448.693 1424.49C410.721 1428.72 373.069 1435.69 336.027 1446.27C284.4 1462.08 215.842 1491.87 212.664 1554.95C211.424 1600.54 249.031 1634.55 284.777 1655.26C368.994 1702.83 473.82 1718.06 569.122 1719.94C666.805 1720.6 767.102 1703.79 853.235 1654.82C888.749 1633.94 926.456 1600.47 925.581 1554.95C922.856 1491.69 854.508 1461.3 802.217 1446.26Z" fill="#6089C0"/>
</svg>
