<svg width="460" height="460" viewBox="0 0 460 460" fill="none" xmlns="http://www.w3.org/2000/svg">
<g clip-path="url(#clip0_3311_19)">
<path d="M230 57.5C244.216 57.5 258.112 61.7154 269.932 69.6131C281.751 77.5108 290.964 88.7362 296.404 101.87C301.844 115.003 303.267 129.455 300.494 143.397C297.721 157.339 290.875 170.146 280.823 180.198C270.771 190.25 257.965 197.096 244.022 199.869C230.08 202.642 215.628 201.219 202.495 195.779C189.361 190.339 178.136 181.126 170.238 169.307C162.34 157.487 158.125 143.591 158.125 129.375C158.125 110.313 165.698 92.0309 179.177 78.5517C192.656 65.0725 210.938 57.5 230 57.5ZM230 28.75C210.098 28.75 190.643 34.6516 174.096 45.7084C157.548 56.7652 144.651 72.4807 137.035 90.8675C129.419 109.254 127.426 129.487 131.309 149.006C135.191 168.525 144.775 186.455 158.847 200.528C172.92 214.6 190.85 224.184 210.369 228.067C229.888 231.949 250.121 229.956 268.508 222.34C286.894 214.724 302.61 201.827 313.667 185.279C324.723 168.732 330.625 149.277 330.625 129.375C330.625 102.688 320.024 77.0932 301.153 58.2224C282.282 39.3515 256.687 28.75 230 28.75Z" fill="white"/>
<path d="M373.75 431.25H345V359.375C345 349.936 343.141 340.59 339.529 331.87C335.917 323.149 330.623 315.226 323.948 308.552C317.274 301.877 309.351 296.583 300.63 292.971C291.91 289.359 282.564 287.5 273.125 287.5H186.875C167.813 287.5 149.531 295.073 136.052 308.552C122.573 322.031 115 340.313 115 359.375V431.25H86.25V359.375C86.25 332.688 96.8515 307.093 115.722 288.222C134.593 269.352 160.188 258.75 186.875 258.75H273.125C299.812 258.75 325.407 269.352 344.278 288.222C363.148 307.093 373.75 332.688 373.75 359.375V431.25Z" fill="white"/>
</g>
<defs>
<clipPath id="clip0_3311_19">
<rect width="460" height="460" fill="white"/>
</clipPath>
</defs>
</svg>
