<svg width="626" height="492" viewBox="0 0 626 492" fill="none" xmlns="http://www.w3.org/2000/svg">
<path d="M0 224.089C0 240.089 6.66667 252.356 20 260.889L288 439.289C294.933 444.089 302.4 446.756 310.4 447.289C318.4 447.822 326.133 445.956 333.6 441.689C341.067 437.422 346.933 431.822 351.2 424.889C355.467 417.956 357.6 410.489 357.6 402.489V312.889C415.2 312.889 466.933 329.422 512.8 362.489C558.667 395.556 590.933 438.489 609.6 491.289C620.267 461.422 625.6 431.822 625.6 402.489C625.6 353.956 613.6 309.156 589.6 268.089C565.6 227.022 533.067 194.489 492 170.489C450.933 146.489 406.133 134.489 357.6 134.489V44.8889C357.6 36.8889 355.467 29.4222 351.2 22.4889C346.933 15.5556 341.067 9.95555 333.6 5.68889C326.133 1.42222 318.4 -0.444444 310.4 0.0888889C302.4 0.622222 294.933 3.28888 288 8.08888L20 186.489C6.66667 195.022 0 207.556 0 224.089Z" fill="#6089C0"/>
</svg>
